<svg xmlns="http://www.w3.org/2000/svg" width="280" height="60" viewBox="0 0 280 60">
  <defs>
    <style>
      .b6ea3b2d-cc20-4b35-88b6-de7be38db512 {
        fill: #fff;
      }

      .bbff73a5-b444-41c1-923d-894fdb86e373 {
        fill: #c1ccd3;
      }

      .ae4182c2-fe60-476c-87f1-33fc3ccd7482 {
        fill: #acb8c5;
      }
    </style>
  </defs>
  <title>connex-logo-reverse</title>
  <g id="b3a6751b-598d-452e-ac6f-3f5cf1ed1615" data-name="Layer 1">
    <g>
      <path class="b6ea3b2d-cc20-4b35-88b6-de7be38db512" d="M51.89,37.33H60V39H50.12V21.28h1.77Z"/>
      <path class="b6ea3b2d-cc20-4b35-88b6-de7be38db512" d="M70.35,39.42a8.94,8.94,0,0,1-9.09-9.29,9.09,9.09,0,1,1,18.18,0A8.94,8.94,0,0,1,70.35,39.42Zm0-16.94c-4.49,0-7.17,3.57-7.17,7.65s2.68,7.64,7.17,7.64,7.17-3.57,7.17-7.64S74.83,22.48,70.35,22.48Z"/>
      <path class="b6ea3b2d-cc20-4b35-88b6-de7be38db512" d="M95.87,24.53a6.49,6.49,0,0,0-5-2.05c-4.49,0-7.17,3.57-7.17,7.65s2.68,7.64,7.17,7.64a9.91,9.91,0,0,0,4.83-1.24V30.6H91.56V29H97.5v8.67a13.4,13.4,0,0,1-6.6,1.8,8.94,8.94,0,0,1-9.1-9.29,9,9,0,0,1,9.1-9.3,8.33,8.33,0,0,1,6.31,2.37Z"/>
      <path class="b6ea3b2d-cc20-4b35-88b6-de7be38db512" d="M103.93,39h-1.78V21.28h1.78Z"/>
      <path class="b6ea3b2d-cc20-4b35-88b6-de7be38db512" d="M108.66,21.28h5.2c2.88,0,5.62,1.1,5.62,4.45a3.81,3.81,0,0,1-3.08,3.87v0a4.08,4.08,0,0,1,3.94,4.43c0,1.15-.74,4.89-6.36,4.89h-5.32ZM110.43,29H114c1.71,0,3.55-.83,3.55-3.1,0-.73-.37-3-3.72-3h-3.4Zm0,8.3h3.4c2.57,0,4.59-1,4.59-3.35s-1.53-3.45-4.37-3.45h-3.62Z"/>
      <path class="b6ea3b2d-cc20-4b35-88b6-de7be38db512" d="M126,37.33h9.34V39H124.18V21.28H135v1.65h-9v6h8.46V30.6H126Z"/>
      <path class="b6ea3b2d-cc20-4b35-88b6-de7be38db512" d="M153.15,36.17a7.62,7.62,0,0,1-6.45,3.25,8.94,8.94,0,0,1-9.1-9.29,9,9,0,0,1,9.1-9.3,7.53,7.53,0,0,1,6,2.8l-1.56,1.17a5.72,5.72,0,0,0-4.48-2.32c-4.49,0-7.17,3.57-7.17,7.65s2.68,7.64,7.17,7.64a5.58,5.58,0,0,0,5-2.64Z"/>
      <path class="b6ea3b2d-cc20-4b35-88b6-de7be38db512" d="M174.54,25.43a4.71,4.71,0,0,0-3.67-1.75c-3.6,0-6,2.8-6,6.32,0,3.78,2.39,6.58,6,6.58a4.9,4.9,0,0,0,3.92-2.15l2.56,1.85a7.7,7.7,0,0,1-6.51,3.14,8.79,8.79,0,0,1-9.21-9.22c0-5.67,3.84-9.37,9.21-9.37a7.51,7.51,0,0,1,6.11,2.8Z"/>
      <path class="b6ea3b2d-cc20-4b35-88b6-de7be38db512" d="M187.72,20.83c5.44-.1,9.29,3.6,9.29,9.27,0,5.52-3.85,9.22-9.29,9.32a8.8,8.8,0,0,1-9.22-9.22C178.5,24.53,182.35,20.83,187.72,20.83Zm0,15.75c3.63,0,6-2.8,6-6.58,0-3.52-2.39-6.32-6-6.32s-6,2.8-6,6.32C181.75,33.78,184.14,36.58,187.74,36.58Z"/>
      <path class="b6ea3b2d-cc20-4b35-88b6-de7be38db512" d="M200,21.28h4.12l8.45,13.15h.05V21.28h3.1V39h-3.94L203.12,25.4h-.05V39H200Z"/>
      <path class="b6ea3b2d-cc20-4b35-88b6-de7be38db512" d="M219.57,21.28h4.12l8.45,13.15h.05V21.28h3.1V39h-3.94L222.73,25.4h0V39h-3.11Z"/>
      <path class="b6ea3b2d-cc20-4b35-88b6-de7be38db512" d="M239.18,21.28h11.56v2.85h-8.45v4.35h8v2.85h-8v4.79h8.89V39h-12Z"/>
      <path class="b6ea3b2d-cc20-4b35-88b6-de7be38db512" d="M258.5,29.73l-5.82-8.45h3.92l4.11,6.55,4.07-6.55h3.77l-5.72,8.45L269.17,39h-3.95l-4.6-7.47L256,39h-3.74Z"/>
    </g>
  </g>
  <g id="bd690645-beed-458d-8d3d-3adfc3ab7a10" data-name="Layer 3">
    <path class="b6ea3b2d-cc20-4b35-88b6-de7be38db512" d="M13,29.5a16.61,16.61,0,0,0,1.56,7.28L19,33.4a10.78,10.78,0,0,1-.52-4.16A13.05,13.05,0,0,1,19,26.12L14.3,22.74A18.41,18.41,0,0,0,13,29.5"/>
    <path class="bbff73a5-b444-41c1-923d-894fdb86e373" d="M28.08,19.36a9.6,9.6,0,0,0-9.36,6.76L14.3,22.74c2.34-5.2,7.28-8.06,13.78-8.06a12.6,12.6,0,0,1,10.66,5.2L34.58,23C32.5,20.4,30.42,19.36,28.08,19.36Z"/>
    <path class="ae4182c2-fe60-476c-87f1-33fc3ccd7482" d="M28.34,40.16A9.6,9.6,0,0,1,19,33.4l-4.42,3.38c2.34,5.2,7.28,8.06,13.78,8.06A12.6,12.6,0,0,0,39,39.64l-4.16-3.12C32.76,39.12,30.68,40.16,28.34,40.16Z"/>
  </g>
</svg>
