<?xml version="1.0" encoding="utf-8"?>
<!-- Generator: Adobe Illustrator 23.1.0, SVG Export Plug-In . SVG Version: 6.00 Build 0)  -->
<svg version="1.1" xmlns="http://www.w3.org/2000/svg" xmlns:xlink="http://www.w3.org/1999/xlink" x="0px" y="0px" width="289px"
	 height="60px" viewBox="0 0 289 60" style="enable-background:new 0 0 289 60;" xml:space="preserve">
<style type="text/css">
	.st0{fill:#32A2D7;}
	.st1{opacity:0.18;fill:#FFFFFF;}
	.st2{fill:#FFFFFF;}
	.st3{fill:#73879C;}
	.st4{fill:#2F3943;}
	.st5{fill:#ACB8C5;}
	.st6{fill:#C1CCD3;}
	.st7{fill:#0082A5;}
	.st8{fill:#66CC99;stroke:#66CC99;stroke-width:0.25;stroke-miterlimit:10;}
	.st9{fill:#6B489D;}
	.st10{fill:#6659A6;}
	.st11{opacity:0.2;fill:#FFFFFF;enable-background:new    ;}
	.st12{fill:#66CC99;}
	.st13{fill:#00DBFF;}
	.st14{opacity:0.2;fill:#FFFFFF;}
	.st15{fill:none;stroke:#FFFFFF;stroke-width:0;stroke-linecap:round;stroke-linejoin:round;}
	.st16{opacity:0.48;fill:none;stroke:#000000;stroke-width:1.8746;stroke-miterlimit:10;}
	.st17{fill:#0FF094;}
	.st18{fill:none;stroke:#FFFFFF;stroke-width:1.1579;stroke-linecap:round;}
	.st19{fill:none;stroke:#FFFFFF;stroke-width:1.2472;stroke-miterlimit:10;}
	.st20{fill:#148BAF;}
	.st21{fill:#FFFF45;}
	.st22{fill-rule:evenodd;clip-rule:evenodd;fill:none;}
	.st23{fill:#0083A5;}
	.st24{fill:#FF6400;}
	.st25{fill:#E75529;}
	.st26{fill:#00778C;}
	.st27{fill:#9AE6DA;}
	.st28{fill:#373D49;}
	.st29{fill:#28BBE7;}
	.st30{fill:none;stroke:#148BAF;stroke-miterlimit:10;}
	.st31{fill:#00ACF2;}
	.st32{fill:#FF4936;}
	.st33{fill:#E3E3E3;}
	.st34{fill:#0077BE;}
	.st35{fill-rule:evenodd;clip-rule:evenodd;fill:#0077BE;}
	.st36{fill:url(#);}
	.st37{fill:#CFD8DC;}
	.st38{fill:none;stroke:#2F3943;stroke-width:2;stroke-miterlimit:10;}
	.st39{fill:#5DD7C4;}
	.st40{fill:#34CDB5;}
	.st41{fill-rule:evenodd;clip-rule:evenodd;fill:#FF6400;}
	.st42{fill-rule:evenodd;clip-rule:evenodd;fill:#FF6B12;}
	.st43{fill-rule:evenodd;clip-rule:evenodd;fill:#FF3A00;}
	.st44{fill:#5D0ECF;}
	.st45{fill-rule:evenodd;clip-rule:evenodd;fill:#00DBFF;}
	.st46{fill:#00BFB6;}
	.st47{fill-rule:evenodd;clip-rule:evenodd;fill:#FF4936;}
	.st48{fill:#710ADB;}
	.st49{fill:#FFCF59;}
	.st50{fill-rule:evenodd;clip-rule:evenodd;fill:#31A2D7;}
	.st51{fill:#0066AB;}
	.st52{fill:#C9302C;}
	.st53{fill:#FFC026;}
	.st54{fill:#FFBA12;}
	.st55{fill:#31B0D5;}
	.st56{fill:#F2F3F6;}
	.st57{fill:#0066CC;}
	.st58{fill:#0033CC;}
	.st59{fill:#40BF80;}
	.st60{fill:#3250D7;}
	.st61{fill:#FF3A00;}
	.st62{fill:#FF1B03;}
	.st63{fill:none;stroke:#FFFFFF;stroke-width:0.6046;stroke-linecap:round;stroke-linejoin:round;stroke-miterlimit:10;}
</style>
<g id="Layer_1">
	<g>
		<g>
			<path class="st2" d="M77.9,37.3H86V39h-9.9V21.3h1.8V37.3z"/>
			<path class="st2" d="M96.3,39.4c-5.2,0-9.1-3.9-9.1-9.3c0-5.4,3.9-9.3,9.1-9.3c5.2,0,9.1,3.9,9.1,9.3
				C105.4,35.5,101.5,39.4,96.3,39.4z M96.3,22.5c-4.5,0-7.2,3.6-7.2,7.6s2.7,7.6,7.2,7.6c4.5,0,7.2-3.6,7.2-7.6
				S100.8,22.5,96.3,22.5z"/>
			<path class="st2" d="M121.9,24.5c-1.2-1.3-2.8-2-5-2c-4.5,0-7.2,3.6-7.2,7.6s2.7,7.6,7.2,7.6c1.8,0,3.5-0.5,4.8-1.2v-5.9h-4.2V29
				h5.9v8.7c-1.9,1.2-4.5,1.8-6.6,1.8c-5.2,0-9.1-3.9-9.1-9.3c0-5.4,3.9-9.3,9.1-9.3c2.8,0,4.8,0.8,6.3,2.4L121.9,24.5z"/>
			<path class="st2" d="M129.9,39h-1.8V21.3h1.8V39z"/>
			<path class="st2" d="M134.7,21.3h5.2c2.9,0,5.6,1.1,5.6,4.4c0,1.9-1.1,3.4-3.1,3.9v0.1c2.4,0.2,3.9,1.8,3.9,4.4
				c0,1.1-0.7,4.9-6.4,4.9h-5.3V21.3z M136.4,29h3.6c1.7,0,3.5-0.8,3.5-3.1c0-0.7-0.4-3-3.7-3h-3.4V29z M136.4,37.3h3.4
				c2.6,0,4.6-1,4.6-3.3s-1.5-3.4-4.4-3.4h-3.6V37.3z"/>
			<path class="st2" d="M152,37.3h9.3V39h-11.1V21.3H161v1.6h-9v6h8.5v1.6H152V37.3z"/>
			<path class="st2" d="M179.2,36.2c-1.2,1.8-3.6,3.3-6.5,3.3c-5.2,0-9.1-3.9-9.1-9.3c0-5.4,3.9-9.3,9.1-9.3c2.2,0,4.5,0.8,6,2.8
				l-1.6,1.2c-0.7-1.1-2.6-2.3-4.5-2.3c-4.5,0-7.2,3.6-7.2,7.6s2.7,7.6,7.2,7.6c1.8,0,3.7-0.6,5-2.6L179.2,36.2z"/>
			<path class="st2" d="M197.1,25.1c-0.7-1-1.8-1.4-3.1-1.4c-1.4,0-2.9,0.6-2.9,2.3c0,3.5,8.3,1.5,8.3,7.8c0,3.8-3,5.6-6.4,5.6
				c-2.2,0-4.3-0.7-5.7-2.4l2.3-2.3c0.8,1.2,2.1,1.8,3.4,1.8c1.4,0,3.1-0.8,3.1-2.4c0-3.9-8.3-1.6-8.3-8c0-3.6,3.2-5.3,6.4-5.3
				c1.8,0,3.6,0.5,5,1.8L197.1,25.1z"/>
			<path class="st2" d="M206.3,24.1h-5.3v-2.8h13.8v2.8h-5.3V39h-3.1V24.1z"/>
			<path class="st2" d="M216.8,21.3h6.1c3.4,0,6.5,1.1,6.5,5.1c0,2.5-1.5,4.4-4,4.8L230,39h-3.7l-4-7.5h-2.3V39h-3.1V21.3z
				 M222.4,28.8c1.8,0,3.8-0.2,3.8-2.4c0-2.1-1.9-2.3-3.5-2.3h-2.7v4.8H222.4z"/>
			<path class="st2" d="M240.6,20.8c5.4-0.1,9.3,3.6,9.3,9.3c0,5.5-3.8,9.2-9.3,9.3c-5.4,0-9.2-3.7-9.2-9.2
				C231.4,24.5,235.3,20.8,240.6,20.8z M240.7,36.6c3.6,0,6-2.8,6-6.6c0-3.5-2.4-6.3-6-6.3c-3.6,0-6,2.8-6,6.3
				C234.7,33.8,237.1,36.6,240.7,36.6z"/>
			<path class="st2" d="M253,21.3h4.7l4.7,12.4l4.7-12.4h4.7V39h-3V24.3h0L263.4,39h-2.2L256,24.3h0V39h-3V21.3z"/>
		</g>
	</g>
	<polyline class="st13" points="0,0 60,0 60,60 0,60 0,0 	"/>
	<g>
		<g>
			<rect x="43.5" y="24.3" class="st18" width="11" height="11"/>
			<polygon class="st2" points="49.4,26.9 48.4,26.9 48.4,29.5 45.8,29.5 45.8,30.4 48.4,30.4 48.4,33.1 49.4,33.1 49.4,30.4 
				52,30.4 52,29.5 49.4,29.5 			"/>
		</g>
		<path class="st2" d="M47.5,38.3c-1.7,3.4-4.3,6.3-7.5,8.4c-3.3,2.1-7.1,3.2-11,3.2C17.6,49.9,8.3,40.5,8.3,29
			C8.3,17.5,17.6,8.1,29,8.1c8.3,0,15.8,5,19,12.8l0,0h1.8l0-0.1c-1.6-4.2-4.4-7.8-8.1-10.4C38,7.8,33.6,6.4,29,6.4
			C16.7,6.4,6.6,16.5,6.6,29c0,12.5,10,22.6,22.4,22.6c8.8,0,16.8-5.2,20.4-13.3l0.1-0.1L47.5,38.3L47.5,38.3z"/>
		<g>
			<path class="st2" d="M28.9,32.8l-2.4-2.7h-4.6v8.6h14v-8.6h-4.6L28.9,32.8z M34.4,31.7v5.5h-11v-5.5h2.4l3,3.5l3.1-3.5H34.4z"/>
			<path class="st2" d="M23.7,24.8c0,2.9,2.3,5.2,5.2,5.2c2.9,0,5.2-2.3,5.2-5.2c0-2.9-2.3-5.2-5.2-5.2C26,19.6,23.7,21.9,23.7,24.8
				z M28.9,21.1c2.1,0,3.7,1.6,3.7,3.7c0,2.1-1.6,3.7-3.7,3.7c-2.1,0-3.7-1.6-3.7-3.7C25.2,22.8,26.9,21.1,28.9,21.1z"/>
		</g>
		
			<rect x="7" y="47.9" transform="matrix(-1.836970e-16 1 -1 -1.836970e-16 60.4235 40.8729)" class="st19" width="5.5" height="5.5"/>
		<path class="st2" d="M48.7,50v-1.8l4,2.4l-4,2.4v-1.6"/>
		<rect x="41.7" y="49.9" class="st2" width="7.2" height="1.7"/>
		<rect x="12.1" y="49.9" class="st2" width="15.6" height="1.7"/>
	</g>
</g>
<g id="Layer_2">
</g>
<g id="Layer_3">
</g>
</svg>
