<svg id="b92b5c76-fd18-45fe-bf63-69cfd034f67c" data-name="Layer 1" xmlns="http://www.w3.org/2000/svg" width="59.99" height="60" viewBox="0 0 59.99 60">
  <defs>
    <style>
      .af33c5ea-314b-48e0-b361-bca12ad311ed {
        fill: #6c9;
      }

      .a921b651-eb56-45eb-9f05-58d4801729ab, .b7ecf058-ee01-44f1-b88d-337c97185552 {
        fill: #fff;
      }

      .b7ecf058-ee01-44f1-b88d-337c97185552 {
        opacity: 0.2;
      }

      .b02f8f83-1ff7-46de-b698-93f16389da25 {
        fill: none;
        stroke: #fff;
        stroke-linecap: round;
        stroke-linejoin: round;
        stroke-width: 0;
      }
    </style>
  </defs>
  <title>grf-logotype</title>
  <polyline class="af33c5ea-314b-48e0-b361-bca12ad311ed" points="0 0 60 0 60 60 0 60 0 0"/>
  <polygon class="b7ecf058-ee01-44f1-b88d-337c97185552" points="60 0 60 60 30.11 30 60 0"/>
  <g>
    <line class="b02f8f83-1ff7-46de-b698-93f16389da25" x1="26.92" y1="46.74" x2="26.92" y2="46.74"/>
    <line class="b02f8f83-1ff7-46de-b698-93f16389da25" x1="14.83" y1="46.74" x2="14.83" y2="46.74"/>
  </g>
  <g>
    <path class="a921b651-eb56-45eb-9f05-58d4801729ab" d="M30.9,42.22V39.09c3.34-.55,5.13-2.83,5.13-5.41s-1.51-4.34-4.92-5.62c-2.58-1-3.67-1.73-3.67-3,0-1,.76-2.13,2.88-2.13a8.88,8.88,0,0,1,4.13,1l.83-2.8a9.84,9.84,0,0,0-4.2-1V17.36H28.59v3c-3.07.55-4.89,2.55-4.89,5.17,0,2.82,2.07,4.28,5.25,5.44,2.25.82,3.32,1.7,3.32,3.07s-1.31,2.4-3.22,2.4a9.54,9.54,0,0,1-4.74-1.34l-.83,2.85a10.18,10.18,0,0,0,4.93,1.34v2.95Z"/>
    <path class="a921b651-eb56-45eb-9f05-58d4801729ab" d="M46.26,37.65a18.52,18.52,0,1,1,.47-15.42l0,.11h1.88l-.09-.24a20.26,20.26,0,1,0-.43,15.7l.11-.25H46.31Z"/>
    <rect class="a921b651-eb56-45eb-9f05-58d4801729ab" x="43.11" y="33.51" width="11.6" height="1.56"/>
    <rect class="a921b651-eb56-45eb-9f05-58d4801729ab" x="43.11" y="29.22" width="11.6" height="1.56"/>
    <rect class="a921b651-eb56-45eb-9f05-58d4801729ab" x="43.11" y="24.95" width="11.6" height="1.56"/>
  </g>
</svg>
