<svg id="b60fa0aa-2fff-4f87-a300-50857ec2695c" data-name="Layer 1" xmlns="http://www.w3.org/2000/svg" width="59.99" height="60" viewBox="0 0 59.99 60">
  <defs>
    <style>
      .be059909-89d5-4271-8198-2b9b4b43b597 {
        fill: #6c9;
      }

      .aea3eebc-0680-4c14-a1a2-f2a285dd9ea4, .b34fd2e9-fd82-4d38-831c-352ffa1a3ced {
        fill: #fff;
      }

      .aea3eebc-0680-4c14-a1a2-f2a285dd9ea4 {
        opacity: 0.2;
      }
    </style>
  </defs>
  <title>grm-logotype</title>
  <g>
    <polyline class="be059909-89d5-4271-8198-2b9b4b43b597" points="0 0.01 60 0.01 60 60 0 60 0 0.01"/>
    <polygon class="aea3eebc-0680-4c14-a1a2-f2a285dd9ea4" points="0 0 0 60 30 30 0 0"/>
  </g>
  <g>
    <path class="b34fd2e9-fd82-4d38-831c-352ffa1a3ced" d="M57.27,20.71l-8.14-8.1a.76.76,0,0,0-.13-.1l-.11-.06a.5.5,0,0,0-.16,0l-.14,0-27.32.13a1.34,1.34,0,0,0-.89.34l-7.71,7-8.2,9.26a.79.79,0,0,0,0,1,.74.74,0,0,0,.5.26.75.75,0,0,0,.54-.18l6.71-6.11v22a.76.76,0,0,0,.74.77H40.42a.73.73,0,0,0,.3-.07.63.63,0,0,0,.14-.09l8.3-9.35a.77.77,0,0,0,.2-.52V30.76l8-9a.78.78,0,0,0,.19-.54A.81.81,0,0,0,57.27,20.71ZM39.68,23.19V45.34h-26V23.19Zm-25-1.53,5.78-6.53v6.53Zm.56-2.37-1.67,1.88-2.09,1.92L13.32,21Zm31.75-5.35L40.1,21.66H21.89V13.94Zm8.79,7.36-7.2,8.13-7.07-7,7.19-8.13Zm-7.84,9.62v5.63l-6.73,7.59V24.22Z"/>
    <g>
      <rect class="b34fd2e9-fd82-4d38-831c-352ffa1a3ced" x="20.89" y="38.02" width="11.6" height="1.56"/>
      <rect class="b34fd2e9-fd82-4d38-831c-352ffa1a3ced" x="20.89" y="33.73" width="11.6" height="1.56"/>
      <rect class="b34fd2e9-fd82-4d38-831c-352ffa1a3ced" x="20.89" y="29.47" width="11.6" height="1.56"/>
    </g>
  </g>
</svg>
