<svg id="b001c2ea-3b5d-4c22-abaf-ab8ed39714d2" data-name="Layer 1" xmlns="http://www.w3.org/2000/svg" width="59.99" height="60" viewBox="0 0 59.99 60">
  <defs>
    <style>
      .a2e56fe5-2820-4b9f-a246-eaaa3aa9f1ae {
        fill: #6b489d;
      }

      .a63fb571-089c-47ea-9d11-849e6f1cebae, .efb55414-7265-442e-b503-a9b49c91e72a {
        fill: #fff;
      }

      .efb55414-7265-442e-b503-a9b49c91e72a {
        opacity: 0.2;
        isolation: isolate;
      }
    </style>
  </defs>
  <title>reorientationreadmissionai-logotype</title>
  <g>
    <polyline class="a2e56fe5-2820-4b9f-a246-eaaa3aa9f1ae" points="0 0 59.99 0 59.99 59.98 0 59.98 0 0"/>
    <polyline class="efb55414-7265-442e-b503-a9b49c91e72a" points="59.99 59.98 59.98 59.98 29.49 29.98 59.98 0 59.99 0 59.99 59.98"/>
  </g>
  <g>
    <path class="a63fb571-089c-47ea-9d11-849e6f1cebae" d="M29.56,17.94A3.46,3.46,0,1,1,26,21.4a3.49,3.49,0,0,1,3.52-3.46Zm-5,3.46a5,5,0,1,0,5-4.91,5,5,0,0,0-5,4.91Z"/>
    <polygon class="a63fb571-089c-47ea-9d11-849e6f1cebae" points="5.73 23.97 10.48 30.98 14.95 23.97 16.65 23.97 10.51 33.58 4 23.97 5.73 23.97"/>
    <path class="a63fb571-089c-47ea-9d11-849e6f1cebae" d="M11.26,24a19.63,19.63,0,0,1,37.43,0h1.84A21.38,21.38,0,0,0,9.44,24h2.08"/>
    <polygon class="a63fb571-089c-47ea-9d11-849e6f1cebae" points="36.34 31.69 36.34 26.73 31.82 26.73 29.43 29.25 27.07 26.73 22.55 26.73 22.55 42.17 24.2 42.17 24.2 27.83 26.63 27.83 29.57 31.39 32.55 27.83 34.68 27.83 34.68 31.69 36.34 31.69"/>
    <path class="a63fb571-089c-47ea-9d11-849e6f1cebae" d="M29.57,17.93a3.47,3.47,0,1,1-3.51,3.47,3.5,3.5,0,0,1,3.51-3.47Zm-5,3.47a5,5,0,1,0,5-4.91,5,5,0,0,0-5,4.91Z"/>
    <polygon class="a63fb571-089c-47ea-9d11-849e6f1cebae" points="54.15 36.66 49.39 29.64 44.92 36.66 43.22 36.66 49.36 27.04 55.88 36.66 54.15 36.66"/>
    <polygon class="a63fb571-089c-47ea-9d11-849e6f1cebae" points="5.73 23.97 10.49 30.99 14.96 23.97 16.65 23.97 10.52 33.59 4.01 23.97 5.73 23.97"/>
    <path class="a63fb571-089c-47ea-9d11-849e6f1cebae" d="M48.47,36.56a19.44,19.44,0,0,1-36.95-.46H9.63a21.33,21.33,0,0,0,40.8.56h-2Z"/>
    <path class="a63fb571-089c-47ea-9d11-849e6f1cebae" d="M11.27,24a19.64,19.64,0,0,1,37.45,0h1.83A21.39,21.39,0,0,0,9.44,24Z"/>
    <path class="a63fb571-089c-47ea-9d11-849e6f1cebae" d="M30.86,38.86l-1.3-3.48-1.32,3.48Zm-1.92-5h1.34L34,42.72H32.18l-.79-2.2H27.73L27,42.72H25.15l3.79-8.82Z"/>
    <polygon class="a63fb571-089c-47ea-9d11-849e6f1cebae" points="34.68 33.9 36.34 33.9 36.34 42.72 34.68 42.72 34.68 33.9"/>
  </g>
</svg>
